<svg xmlns="http://www.w3.org/2000/svg" width="18.692" height="17" viewBox="0 0 18.692 17">
  <path id="Icon_awesome-hand-point-right" data-name="Icon awesome-hand-point-right" d="M17.692,10.152a1.734,1.734,0,0,1-1.548,1.826h-3.45a2.347,2.347,0,0,1-.218,2.956,2.133,2.133,0,0,1-.568,2.6c.31,2.048-.758,2.969-2.509,2.969-.095,0-.459-.008-.553-.008C6.7,20.5,6.189,19.2,4.57,18.9a.961.961,0,0,1-.7-.988V10.761h0a2.056,2.056,0,0,1,.984-1.827c1-.541,3.3-2.043,3.716-3.222C8.839,4.954,9.308,4.5,9.952,4.5c1.183,0,2,1.462,1.524,2.788a6.063,6.063,0,0,1-.489,1.038h5.157A1.762,1.762,0,0,1,17.692,10.152Zm-14.375.014v8a.927.927,0,0,1-.829,1H.829a.927.927,0,0,1-.829-1v-8a.927.927,0,0,1,.829-1H2.488A.927.927,0,0,1,3.317,10.167Zm-.968,7a.772.772,0,0,0-.691-.833.848.848,0,0,0,0,1.667A.772.772,0,0,0,2.35,17.167Z" transform="translate(0.5 -4)" stroke="#0c60ce" stroke-width="1"/>
</svg>
