<svg xmlns="http://www.w3.org/2000/svg" width="32.598" height="32.591" viewBox="0 0 32.598 32.591">
  <path id="Icon_awesome-instagram" data-name="Icon awesome-instagram" d="M15.762,7.676a8.079,8.079,0,1,0,8.079,8.079A8.066,8.066,0,0,0,15.762,7.676Zm0,13.331a5.252,5.252,0,1,1,5.252-5.252,5.262,5.262,0,0,1-5.252,5.252ZM26.056,7.346a1.884,1.884,0,1,1-1.884-1.884A1.88,1.88,0,0,1,26.056,7.346Zm5.351,1.913a9.325,9.325,0,0,0-2.545-6.6,9.387,9.387,0,0,0-6.6-2.545c-2.6-.148-10.4-.148-13,0a9.373,9.373,0,0,0-6.6,2.538,9.356,9.356,0,0,0-2.545,6.6c-.148,2.6-.148,10.4,0,13a9.325,9.325,0,0,0,2.545,6.6,9.4,9.4,0,0,0,6.6,2.545c2.6.148,10.4.148,13,0a9.325,9.325,0,0,0,6.6-2.545,9.387,9.387,0,0,0,2.545-6.6c.148-2.6.148-10.392,0-12.994ZM28.046,25.044a5.318,5.318,0,0,1-3,3c-2.074.823-7,.633-9.288.633s-7.221.183-9.288-.633a5.318,5.318,0,0,1-3-3c-.823-2.074-.633-7-.633-9.288s-.183-7.221.633-9.288a5.318,5.318,0,0,1,3-3c2.074-.823,7-.633,9.288-.633s7.221-.183,9.288.633a5.318,5.318,0,0,1,3,3c.823,2.074.633,7,.633,9.288S28.869,22.976,28.046,25.044Z" transform="matrix(0.999, -0.035, 0.035, 0.999, 0, 1.1)" fill="#ee00ff"/>
</svg>
