<svg xmlns="http://www.w3.org/2000/svg" width="36.071" height="36.069" viewBox="0 0 36.071 36.069">
  <path id="Icon_awesome-facebook-messenger" data-name="Icon awesome-facebook-messenger" d="M17.476,0C7.63,0,0,7.2,0,16.915A16.532,16.532,0,0,0,5.489,29.427c.587.528.466.834.566,4.094a1.4,1.4,0,0,0,1.96,1.235c3.72-1.638,3.768-1.768,4.4-1.6,10.778,2.966,22.461-3.931,22.461-16.245C34.875,7.2,27.323,0,17.476,0ZM27.97,13.017l-5.133,8.126a2.628,2.628,0,0,1-3.791.7l-4.084-3.056a1.055,1.055,0,0,0-1.266,0l-5.51,4.179a.829.829,0,0,1-1.2-1.1l5.133-8.126a2.627,2.627,0,0,1,3.791-.7l4.082,3.056a1.055,1.055,0,0,0,1.266,0l5.513-4.175a.827.827,0,0,1,1.2,1.1Z" transform="matrix(0.999, -0.035, 0.035, 0.999, 0, 1.217)" fill="#2200ff"/>
</svg>
