<svg xmlns="http://www.w3.org/2000/svg" width="20.686" height="20.686" viewBox="0 0 20.686 20.686">
  <path id="Icon_awesome-whatsapp" data-name="Icon awesome-whatsapp" d="M17,2.906a9.914,9.914,0,0,0-15.6,11.96L0,20l5.254-1.379a9.881,9.881,0,0,0,4.737,1.205h0A10.006,10.006,0,0,0,20,9.915a9.95,9.95,0,0,0-3-7.009ZM10,18.156a8.223,8.223,0,0,1-4.2-1.147l-.3-.179-3.116.817.83-3.04-.2-.312A8.253,8.253,0,1,1,18.326,9.915,8.329,8.329,0,0,1,10,18.156Zm4.518-6.17c-.246-.125-1.464-.723-1.692-.8s-.393-.125-.558.125-.638.8-.786.973-.29.188-.536.063A6.741,6.741,0,0,1,7.571,9.4c-.254-.437.254-.406.728-1.353a.459.459,0,0,0-.022-.433c-.062-.125-.558-1.344-.763-1.839s-.406-.415-.558-.424-.308-.009-.473-.009a.917.917,0,0,0-.661.308,2.783,2.783,0,0,0-.866,2.067,4.851,4.851,0,0,0,1.009,2.563A11.066,11.066,0,0,0,10.2,14.018a4.846,4.846,0,0,0,2.973.621,2.536,2.536,0,0,0,1.67-1.179,2.071,2.071,0,0,0,.143-1.179C14.924,12.17,14.759,12.107,14.513,11.987Z" transform="matrix(0.999, -0.035, 0.035, 0.999, 0, 0.698)" fill="#00ff00"/>
</svg>
